<?xml version="1.0" encoding="utf-8"?>
<!-- Generator: Adobe Illustrator 25.4.1, SVG Export Plug-In . SVG Version: 6.00 Build 0)  -->
<svg version="1.1" id="Layer_1" xmlns="http://www.w3.org/2000/svg" xmlns:xlink="http://www.w3.org/1999/xlink" x="0px" y="0px"
	 viewBox="0 0 1920 1080" style="enable-background:new 0 0 1920 1080;" xml:space="preserve">
<style type="text/css">
	.st0{fill:#161616;}
	.st1{fill:#FFFFFF;}
</style>
<g>
	<g>
		<rect x="100.4" y="69.9" class="st0" width="8.5" height="949.3"/>
	</g>
	<g>
		
			<rect x="952.5" y="158.7" transform="matrix(-1.836970e-16 1 -1 -1.836970e-16 1971.7114 58.2886)" class="st0" width="8.5" height="1712.7"/>
	</g>
	<g>
		<polygon class="st0" points="105.3,61.6 92.9,77.6 116.4,77.6 		"/>
	</g>
	<g>
		<polygon class="st0" points="1827.2,1015.1 1811.2,1002.7 1811.2,1026.2 		"/>
	</g>
	<g>
		<rect x="95.3" y="100.7" class="st0" width="18.6" height="2.6"/>
	</g>
	<g>
		<rect x="95.3" y="153.9" class="st0" width="18.6" height="2.6"/>
	</g>
	<g>
		<rect x="95.3" y="206.9" class="st0" width="18.6" height="2.6"/>
	</g>
	<g>
		<rect x="95.3" y="259.3" class="st0" width="18.6" height="2.6"/>
	</g>
	<g>
		<rect x="95.3" y="312.5" class="st0" width="18.6" height="2.6"/>
	</g>
	<g>
		<rect x="95.3" y="363.8" class="st0" width="18.6" height="2.6"/>
	</g>
	<g>
		<rect x="95.3" y="416.8" class="st0" width="18.6" height="2.6"/>
	</g>
	<g>
		<rect x="95.3" y="470.3" class="st0" width="18.6" height="2.6"/>
	</g>
	<g>
		<rect x="95.3" y="522.5" class="st0" width="18.6" height="2.6"/>
	</g>
	<g>
		<rect x="95.3" y="575.9" class="st0" width="18.6" height="2.6"/>
	</g>
	<g>
		<rect x="95.3" y="628.4" class="st0" width="18.6" height="2.6"/>
	</g>
	<g>
		<rect x="95.3" y="680.7" class="st0" width="18.6" height="2.6"/>
	</g>
	<g>
		<rect x="95.3" y="733.6" class="st0" width="18.6" height="2.6"/>
	</g>
	<g>
		<rect x="95.3" y="785.6" class="st0" width="18.6" height="2.6"/>
	</g>
	<g>
		<rect x="95.3" y="839" class="st0" width="18.6" height="2.6"/>
	</g>
	<g>
		<rect x="95.3" y="891.7" class="st0" width="18.6" height="2.6"/>
	</g>
	<g>
		<rect x="95.3" y="944.4" class="st0" width="18.6" height="2.6"/>
	</g>
	<g>
		<rect x="95.3" y="997.1" class="st0" width="18.6" height="2.6"/>
	</g>
	<g>
		
			<rect x="143.1" y="1013.7" transform="matrix(-1.836970e-16 1 -1 -1.836970e-16 1167.3917 862.6083)" class="st0" width="18.6" height="2.6"/>
	</g>
	<g>
		
			<rect x="205.9" y="1013.7" transform="matrix(-1.836970e-16 1 -1 -1.836970e-16 1230.2128 799.7872)" class="st0" width="18.6" height="2.6"/>
	</g>
	<g>
		
			<rect x="267.3" y="1013.7" transform="matrix(-1.836970e-16 1 -1 -1.836970e-16 1291.6171 738.383)" class="st0" width="18.6" height="2.6"/>
	</g>
	<g>
		
			<rect x="330.1" y="1013.7" transform="matrix(-1.836970e-16 1 -1 -1.836970e-16 1354.4255 675.5745)" class="st0" width="18.6" height="2.6"/>
	</g>
	<g>
		
			<rect x="393.2" y="1013.7" transform="matrix(-1.836970e-16 1 -1 -1.836970e-16 1417.4894 612.5106)" class="st0" width="18.6" height="2.6"/>
	</g>
	<g>
		
			<rect x="454.9" y="1013.7" transform="matrix(-1.836970e-16 1 -1 -1.836970e-16 1479.1489 550.8511)" class="st0" width="18.6" height="2.6"/>
	</g>
	<g>
		
			<rect x="517.8" y="1013.7" transform="matrix(-1.836970e-16 1 -1 -1.836970e-16 1542.0851 487.9149)" class="st0" width="18.6" height="2.6"/>
	</g>
	<g>
		
			<rect x="580.2" y="1013.7" transform="matrix(-1.836970e-16 1 -1 -1.836970e-16 1604.5106 425.4893)" class="st0" width="18.6" height="2.6"/>
	</g>
	<g>
		
			<rect x="642.3" y="1013.7" transform="matrix(-1.836970e-16 1 -1 -1.836970e-16 1666.5532 363.4468)" class="st0" width="18.6" height="2.6"/>
	</g>
	<g>
		
			<rect x="705.5" y="1013.7" transform="matrix(-1.836970e-16 1 -1 -1.836970e-16 1729.7446 300.2553)" class="st0" width="18.6" height="2.6"/>
	</g>
	<g>
		
			<rect x="766.9" y="1013.7" transform="matrix(-1.836970e-16 1 -1 -1.836970e-16 1791.1489 238.8511)" class="st0" width="18.6" height="2.6"/>
	</g>
	<g>
		
			<rect x="830.1" y="1013.7" transform="matrix(-1.836970e-16 1 -1 -1.836970e-16 1854.3405 175.6596)" class="st0" width="18.6" height="2.6"/>
	</g>
	<g>
		
			<rect x="893.6" y="1013.7" transform="matrix(-1.836970e-16 1 -1 -1.836970e-16 1917.9149 112.0851)" class="st0" width="18.6" height="2.6"/>
	</g>
	<g>
		
			<rect x="954" y="1013.7" transform="matrix(-1.836970e-16 1 -1 -1.836970e-16 1978.2766 51.7234)" class="st0" width="18.6" height="2.6"/>
	</g>
	<g>
		
			<rect x="1017.8" y="1013.7" transform="matrix(-1.836970e-16 1 -1 -1.836970e-16 2042.1063 -12.1064)" class="st0" width="18.6" height="2.6"/>
	</g>
	<g>
		
			<rect x="1079.1" y="1013.7" transform="matrix(-1.836970e-16 1 -1 -1.836970e-16 2103.3831 -73.383)" class="st0" width="18.6" height="2.6"/>
	</g>
	<g>
		
			<rect x="1204.4" y="1013.7" transform="matrix(-1.836970e-16 1 -1 -1.836970e-16 2228.6382 -198.6383)" class="st0" width="18.6" height="2.6"/>
	</g>
	<g>
		
			<rect x="1141.7" y="1013.7" transform="matrix(-1.836970e-16 1 -1 -1.836970e-16 2166.0107 -136.0106)" class="st0" width="18.6" height="2.6"/>
	</g>
	<g>
		
			<rect x="1266.8" y="1013.7" transform="matrix(-1.836970e-16 1 -1 -1.836970e-16 2291.1169 -261.117)" class="st0" width="18.6" height="2.6"/>
	</g>
	<g>
		
			<rect x="1329.4" y="1013.7" transform="matrix(-1.836970e-16 1 -1 -1.836970e-16 2353.6702 -323.6702)" class="st0" width="18.6" height="2.6"/>
	</g>
	<g>
		
			<rect x="1391.8" y="1013.7" transform="matrix(-1.836970e-16 1 -1 -1.836970e-16 2416.0425 -386.0425)" class="st0" width="18.6" height="2.6"/>
	</g>
	<g>
		
			<rect x="1454.1" y="1013.7" transform="matrix(-1.836970e-16 1 -1 -1.836970e-16 2478.3403 -448.3404)" class="st0" width="18.6" height="2.6"/>
	</g>
	<g>
		
			<rect x="1517.1" y="1013.7" transform="matrix(-1.836970e-16 1 -1 -1.836970e-16 2541.4043 -511.4043)" class="st0" width="18.6" height="2.6"/>
	</g>
	<g>
		
			<rect x="1579.9" y="1013.7" transform="matrix(-1.836970e-16 1 -1 -1.836970e-16 2604.2126 -574.2128)" class="st0" width="18.6" height="2.6"/>
	</g>
	<g>
		
			<rect x="1641.5" y="1013.7" transform="matrix(-1.836970e-16 1 -1 -1.836970e-16 2665.7446 -635.7447)" class="st0" width="18.6" height="2.6"/>
	</g>
	<g>
		
			<rect x="1704.3" y="1013.7" transform="matrix(-1.836970e-16 1 -1 -1.836970e-16 2728.5532 -698.5532)" class="st0" width="18.6" height="2.6"/>
	</g>
	<g>
		
			<rect x="1766.6" y="1013.7" transform="matrix(-1.836970e-16 1 -1 -1.836970e-16 2790.8511 -760.8511)" class="st0" width="18.6" height="2.6"/>
	</g>
	<g>
		<polygon class="st0" points="367.5,963.4 367.2,963.3 108.4,842.4 109.3,840.6 367.7,961.4 629.8,919.3 892.1,540.7 1152.4,658.3 
			1415,607.9 1676.8,265 1678.3,266.2 1416.2,609.7 1415.8,609.8 1152.2,660.4 1151.9,660.3 892.8,543.3 631,921.1 630.6,921.2 		
			"/>
	</g>
	<g>
		<circle class="st0" cx="369.1" cy="962.4" r="10.6"/>
	</g>
	<g>
		<circle class="st0" cx="629.6" cy="921.3" r="10.6"/>
	</g>
	<g>
		<circle class="st0" cx="892.3" cy="543.7" r="10.6"/>
	</g>
	<g>
		<circle class="st0" cx="1153.7" cy="658.1" r="10.6"/>
	</g>
	<g>
		<circle class="st0" cx="1415.5" cy="609.6" r="10.6"/>
	</g>
	<g>
		<circle class="st0" cx="1677.6" cy="265.6" r="10.6"/>
	</g>
	<g>
		<rect x="368.4" y="975.6" class="st0" width="1.4" height="6.3"/>
	</g>
	<g>
		<rect x="368.4" y="988.3" class="st0" width="1.4" height="6.3"/>
	</g>
	<g>
		<rect x="368.4" y="1000.9" class="st0" width="1.4" height="6.3"/>
	</g>
	<g>
		<rect x="628.9" y="934.1" class="st0" width="1.4" height="6.3"/>
	</g>
	<g>
		<rect x="628.9" y="946.8" class="st0" width="1.4" height="6.3"/>
	</g>
	<g>
		<rect x="628.9" y="959.4" class="st0" width="1.4" height="6.3"/>
	</g>
	<g>
		<rect x="628.9" y="972.4" class="st0" width="1.4" height="6.3"/>
	</g>
	<g>
		<rect x="628.9" y="985.1" class="st0" width="1.4" height="6.3"/>
	</g>
	<g>
		<rect x="628.9" y="997.7" class="st0" width="1.4" height="6.3"/>
	</g>
	<g>
		<rect x="891.6" y="556" class="st0" width="1.4" height="6.3"/>
	</g>
	<g>
		<rect x="891.6" y="568.7" class="st0" width="1.4" height="6.3"/>
	</g>
	<g>
		<rect x="891.6" y="581.2" class="st0" width="1.4" height="6.3"/>
	</g>
	<g>
		<rect x="891.6" y="594.3" class="st0" width="1.4" height="6.3"/>
	</g>
	<g>
		<rect x="891.6" y="607" class="st0" width="1.4" height="6.3"/>
	</g>
	<g>
		<rect x="891.6" y="619.6" class="st0" width="1.4" height="6.3"/>
	</g>
	<g>
		<rect x="891.6" y="633.7" class="st0" width="1.4" height="6.3"/>
	</g>
	<g>
		<rect x="891.6" y="646.4" class="st0" width="1.4" height="6.3"/>
	</g>
	<g>
		<rect x="891.6" y="659" class="st0" width="1.4" height="6.3"/>
	</g>
	<g>
		<rect x="891.6" y="672.1" class="st0" width="1.4" height="6.3"/>
	</g>
	<g>
		<rect x="891.6" y="684.8" class="st0" width="1.4" height="6.3"/>
	</g>
	<g>
		<rect x="891.6" y="697.4" class="st0" width="1.4" height="6.3"/>
	</g>
	<g>
		<rect x="891.6" y="709.9" class="st0" width="1.4" height="6.3"/>
	</g>
	<g>
		<rect x="891.6" y="723" class="st0" width="1.4" height="6.3"/>
	</g>
	<g>
		<rect x="891.6" y="735.7" class="st0" width="1.4" height="6.3"/>
	</g>
	<g>
		<rect x="891.6" y="748.3" class="st0" width="1.4" height="6.3"/>
	</g>
	<g>
		<rect x="891.6" y="762.4" class="st0" width="1.4" height="6.3"/>
	</g>
	<g>
		<rect x="891.6" y="775.1" class="st0" width="1.4" height="6.3"/>
	</g>
	<g>
		<rect x="891.6" y="787.7" class="st0" width="1.4" height="6.3"/>
	</g>
	<g>
		<rect x="891.6" y="800.8" class="st0" width="1.4" height="6.3"/>
	</g>
	<g>
		<rect x="891.6" y="813.5" class="st0" width="1.4" height="6.3"/>
	</g>
	<g>
		<rect x="891.6" y="826.1" class="st0" width="1.4" height="6.3"/>
	</g>
	<g>
		<rect x="891.6" y="840" class="st0" width="1.4" height="6.3"/>
	</g>
	<g>
		<rect x="891.6" y="853" class="st0" width="1.4" height="6.3"/>
	</g>
	<g>
		<rect x="891.6" y="865.7" class="st0" width="1.4" height="6.3"/>
	</g>
	<g>
		<rect x="891.6" y="878.3" class="st0" width="1.4" height="6.3"/>
	</g>
	<g>
		<rect x="891.6" y="892.5" class="st0" width="1.4" height="6.3"/>
	</g>
	<g>
		<rect x="891.6" y="905.2" class="st0" width="1.4" height="6.3"/>
	</g>
	<g>
		<rect x="891.6" y="917.8" class="st0" width="1.4" height="6.3"/>
	</g>
	<g>
		<rect x="891.6" y="930.8" class="st0" width="1.4" height="6.3"/>
	</g>
	<g>
		<rect x="891.6" y="943.5" class="st0" width="1.4" height="6.3"/>
	</g>
	<g>
		<rect x="891.6" y="956.1" class="st0" width="1.4" height="6.3"/>
	</g>
	<g>
		<rect x="891.6" y="970.8" class="st0" width="1.4" height="6.3"/>
	</g>
	<g>
		<rect x="891.6" y="983.5" class="st0" width="1.4" height="6.3"/>
	</g>
	<g>
		<rect x="891.6" y="996.1" class="st0" width="1.4" height="6.3"/>
	</g>
	<g>
		<rect x="1153" y="673.5" class="st0" width="1.4" height="6.3"/>
	</g>
	<g>
		<rect x="1153" y="686.1" class="st0" width="1.4" height="6.3"/>
	</g>
	<g>
		<rect x="1153" y="699.2" class="st0" width="1.4" height="6.3"/>
	</g>
	<g>
		<rect x="1153" y="711.9" class="st0" width="1.4" height="6.3"/>
	</g>
	<g>
		<rect x="1153" y="724.5" class="st0" width="1.4" height="6.3"/>
	</g>
	<g>
		<rect x="1153" y="738.6" class="st0" width="1.4" height="6.3"/>
	</g>
	<g>
		<rect x="1153" y="751.3" class="st0" width="1.4" height="6.3"/>
	</g>
	<g>
		<rect x="1153" y="763.9" class="st0" width="1.4" height="6.3"/>
	</g>
	<g>
		<rect x="1153" y="777" class="st0" width="1.4" height="6.3"/>
	</g>
	<g>
		<rect x="1153" y="789.7" class="st0" width="1.4" height="6.3"/>
	</g>
	<g>
		<rect x="1153" y="802.2" class="st0" width="1.4" height="6.3"/>
	</g>
	<g>
		<rect x="1153" y="816.2" class="st0" width="1.4" height="6.3"/>
	</g>
	<g>
		<rect x="1153" y="829.2" class="st0" width="1.4" height="6.3"/>
	</g>
	<g>
		<rect x="1153" y="841.9" class="st0" width="1.4" height="6.3"/>
	</g>
	<g>
		<rect x="1153" y="854.5" class="st0" width="1.4" height="6.3"/>
	</g>
	<g>
		<rect x="1153" y="868.7" class="st0" width="1.4" height="6.3"/>
	</g>
	<g>
		<rect x="1153" y="881.4" class="st0" width="1.4" height="6.3"/>
	</g>
	<g>
		<rect x="1153" y="894" class="st0" width="1.4" height="6.3"/>
	</g>
	<g>
		<rect x="1153" y="907" class="st0" width="1.4" height="6.3"/>
	</g>
	<g>
		<rect x="1153" y="919.7" class="st0" width="1.4" height="6.3"/>
	</g>
	<g>
		<rect x="1153" y="932.3" class="st0" width="1.4" height="6.3"/>
	</g>
	<g>
		<rect x="1153" y="947" class="st0" width="1.4" height="6.3"/>
	</g>
	<g>
		<rect x="1153" y="959.7" class="st0" width="1.4" height="6.3"/>
	</g>
	<g>
		<rect x="1153" y="972.3" class="st0" width="1.4" height="6.3"/>
	</g>
	<g>
		<rect x="1153" y="982.7" class="st0" width="1.4" height="6.3"/>
	</g>
	<g>
		<rect x="1153" y="995.3" class="st0" width="1.4" height="6.3"/>
	</g>
	<g>
		<rect x="1414.8" y="673.5" class="st0" width="1.4" height="6.3"/>
	</g>
	<g>
		<rect x="1414.8" y="686.1" class="st0" width="1.4" height="6.3"/>
	</g>
	<g>
		<rect x="1414.8" y="699.2" class="st0" width="1.4" height="6.3"/>
	</g>
	<g>
		<rect x="1414.8" y="711.9" class="st0" width="1.4" height="6.3"/>
	</g>
	<g>
		<rect x="1414.8" y="622.6" class="st0" width="1.4" height="6.3"/>
	</g>
	<g>
		<rect x="1414.8" y="635.2" class="st0" width="1.4" height="6.3"/>
	</g>
	<g>
		<rect x="1414.8" y="648.3" class="st0" width="1.4" height="6.3"/>
	</g>
	<g>
		<rect x="1414.8" y="661" class="st0" width="1.4" height="6.3"/>
	</g>
	<g>
		<rect x="1414.8" y="724.5" class="st0" width="1.4" height="6.3"/>
	</g>
	<g>
		<rect x="1414.8" y="738.6" class="st0" width="1.4" height="6.3"/>
	</g>
	<g>
		<rect x="1414.8" y="751.3" class="st0" width="1.4" height="6.3"/>
	</g>
	<g>
		<rect x="1414.8" y="763.9" class="st0" width="1.4" height="6.3"/>
	</g>
	<g>
		<rect x="1414.8" y="777" class="st0" width="1.4" height="6.3"/>
	</g>
	<g>
		<rect x="1414.8" y="789.7" class="st0" width="1.4" height="6.3"/>
	</g>
	<g>
		<rect x="1414.8" y="802.2" class="st0" width="1.4" height="6.3"/>
	</g>
	<g>
		<rect x="1414.8" y="816.2" class="st0" width="1.4" height="6.3"/>
	</g>
	<g>
		<rect x="1414.8" y="829.2" class="st0" width="1.4" height="6.3"/>
	</g>
	<g>
		<rect x="1414.8" y="841.9" class="st0" width="1.4" height="6.3"/>
	</g>
	<g>
		<rect x="1414.8" y="854.5" class="st0" width="1.4" height="6.3"/>
	</g>
	<g>
		<rect x="1414.8" y="868.7" class="st0" width="1.4" height="6.3"/>
	</g>
	<g>
		<rect x="1414.8" y="881.4" class="st0" width="1.4" height="6.3"/>
	</g>
	<g>
		<rect x="1414.8" y="894" class="st0" width="1.4" height="6.3"/>
	</g>
	<g>
		<rect x="1414.8" y="907" class="st0" width="1.4" height="6.3"/>
	</g>
	<g>
		<rect x="1414.8" y="919.7" class="st0" width="1.4" height="6.3"/>
	</g>
	<g>
		<rect x="1414.8" y="932.3" class="st0" width="1.4" height="6.3"/>
	</g>
	<g>
		<rect x="1414.8" y="947" class="st0" width="1.4" height="6.3"/>
	</g>
	<g>
		<rect x="1414.8" y="959.7" class="st0" width="1.4" height="6.3"/>
	</g>
	<g>
		<rect x="1414.8" y="972.3" class="st0" width="1.4" height="6.3"/>
	</g>
	<g>
		<rect x="1414.8" y="982.7" class="st0" width="1.4" height="6.3"/>
	</g>
	<g>
		<rect x="1414.8" y="995.3" class="st0" width="1.4" height="6.3"/>
	</g>
	<g>
		<rect x="1676.9" y="318.1" class="st0" width="1.4" height="6.3"/>
	</g>
	<g>
		<rect x="1676.9" y="330.6" class="st0" width="1.4" height="6.3"/>
	</g>
	<g>
		<rect x="1676.9" y="343.7" class="st0" width="1.4" height="6.3"/>
	</g>
	<g>
		<rect x="1676.9" y="356.4" class="st0" width="1.4" height="6.3"/>
	</g>
	<g>
		<rect x="1676.9" y="279.7" class="st0" width="1.4" height="6.3"/>
	</g>
	<g>
		<rect x="1676.9" y="292.8" class="st0" width="1.4" height="6.3"/>
	</g>
	<g>
		<rect x="1676.9" y="305.5" class="st0" width="1.4" height="6.3"/>
	</g>
	<g>
		<rect x="1676.9" y="369" class="st0" width="1.4" height="6.3"/>
	</g>
	<g>
		<rect x="1676.9" y="383.1" class="st0" width="1.4" height="6.3"/>
	</g>
	<g>
		<rect x="1676.9" y="395.9" class="st0" width="1.4" height="6.3"/>
	</g>
	<g>
		<rect x="1676.9" y="408.4" class="st0" width="1.4" height="6.3"/>
	</g>
	<g>
		<rect x="1676.9" y="421.5" class="st0" width="1.4" height="6.3"/>
	</g>
	<g>
		<rect x="1676.9" y="434.2" class="st0" width="1.4" height="6.3"/>
	</g>
	<g>
		<rect x="1676.9" y="446.8" class="st0" width="1.4" height="6.3"/>
	</g>
	<g>
		<rect x="1676.9" y="460.7" class="st0" width="1.4" height="6.3"/>
	</g>
	<g>
		<rect x="1676.9" y="473.7" class="st0" width="1.4" height="6.3"/>
	</g>
	<g>
		<rect x="1676.9" y="486.4" class="st0" width="1.4" height="6.3"/>
	</g>
	<g>
		<rect x="1676.9" y="499" class="st0" width="1.4" height="6.3"/>
	</g>
	<g>
		<rect x="1676.9" y="513.2" class="st0" width="1.4" height="6.3"/>
	</g>
	<g>
		<rect x="1676.9" y="525.9" class="st0" width="1.4" height="6.3"/>
	</g>
	<g>
		<rect x="1676.9" y="538.5" class="st0" width="1.4" height="6.3"/>
	</g>
	<g>
		<rect x="1676.9" y="551.5" class="st0" width="1.4" height="6.3"/>
	</g>
	<g>
		<rect x="1676.9" y="564.2" class="st0" width="1.4" height="6.3"/>
	</g>
	<g>
		<rect x="1676.9" y="576.8" class="st0" width="1.4" height="6.3"/>
	</g>
	<g>
		<rect x="1676.9" y="591.5" class="st0" width="1.4" height="6.3"/>
	</g>
	<g>
		<rect x="1676.9" y="604.2" class="st0" width="1.4" height="6.3"/>
	</g>
	<g>
		<rect x="1676.9" y="616.8" class="st0" width="1.4" height="6.3"/>
	</g>
	<g>
		<rect x="1676.9" y="627.3" class="st0" width="1.4" height="6.3"/>
	</g>
	<g>
		<rect x="1676.9" y="639.8" class="st0" width="1.4" height="6.3"/>
	</g>
	<g>
		<rect x="1676.9" y="654.7" class="st0" width="1.4" height="6.3"/>
	</g>
	<g>
		<rect x="1676.9" y="667.4" class="st0" width="1.4" height="6.3"/>
	</g>
	<g>
		<rect x="1676.9" y="680" class="st0" width="1.4" height="6.3"/>
	</g>
	<g>
		<rect x="1676.9" y="693.9" class="st0" width="1.4" height="6.3"/>
	</g>
	<g>
		<rect x="1676.9" y="707" class="st0" width="1.4" height="6.3"/>
	</g>
	<g>
		<rect x="1676.9" y="719.7" class="st0" width="1.4" height="6.3"/>
	</g>
	<g>
		<rect x="1676.9" y="732.3" class="st0" width="1.4" height="6.3"/>
	</g>
	<g>
		<rect x="1676.9" y="746.4" class="st0" width="1.4" height="6.3"/>
	</g>
	<g>
		<rect x="1676.9" y="759.1" class="st0" width="1.4" height="6.3"/>
	</g>
	<g>
		<rect x="1676.9" y="771.7" class="st0" width="1.4" height="6.3"/>
	</g>
	<g>
		<rect x="1676.9" y="784.8" class="st0" width="1.4" height="6.3"/>
	</g>
	<g>
		<rect x="1676.9" y="797.5" class="st0" width="1.4" height="6.3"/>
	</g>
	<g>
		<rect x="1676.9" y="810.1" class="st0" width="1.4" height="6.3"/>
	</g>
	<g>
		<rect x="1676.9" y="824.8" class="st0" width="1.4" height="6.3"/>
	</g>
	<g>
		<rect x="1676.9" y="837.5" class="st0" width="1.4" height="6.3"/>
	</g>
	<g>
		<rect x="1676.9" y="850" class="st0" width="1.4" height="6.3"/>
	</g>
	<g>
		<rect x="1676.9" y="860.5" class="st0" width="1.4" height="6.3"/>
	</g>
	<g>
		<rect x="1676.9" y="873.1" class="st0" width="1.4" height="6.3"/>
	</g>
	<g>
		<rect x="1676.9" y="888.4" class="st0" width="1.4" height="6.3"/>
	</g>
	<g>
		<rect x="1676.9" y="901.1" class="st0" width="1.4" height="6.3"/>
	</g>
	<g>
		<rect x="1676.9" y="913.7" class="st0" width="1.4" height="6.3"/>
	</g>
	<g>
		<rect x="1676.9" y="928.4" class="st0" width="1.4" height="6.3"/>
	</g>
	<g>
		<rect x="1676.9" y="941.1" class="st0" width="1.4" height="6.3"/>
	</g>
	<g>
		<rect x="1676.9" y="953.7" class="st0" width="1.4" height="6.3"/>
	</g>
	<g>
		<rect x="1676.9" y="965.2" class="st0" width="1.4" height="6.3"/>
	</g>
	<g>
		<rect x="1676.9" y="976.7" class="st0" width="1.4" height="6.3"/>
	</g>
	<g>
		<rect x="1676.9" y="992.2" class="st0" width="1.4" height="6.3"/>
	</g>
	<g>
		<rect x="1676.9" y="1003.8" class="st0" width="1.4" height="6.3"/>
	</g>
</g>
<g>
	<g>
		<rect x="98.4" y="67.9" class="st1" width="8.5" height="949.3"/>
	</g>
	<g>
		
			<rect x="950.5" y="156.7" transform="matrix(-1.836970e-16 1 -1 -1.836970e-16 1967.7114 58.2886)" class="st1" width="8.5" height="1712.7"/>
	</g>
	<g>
		<polygon class="st1" points="103.3,59.6 90.9,75.6 114.4,75.6 		"/>
	</g>
	<g>
		<polygon class="st1" points="1825.2,1013.1 1809.2,1000.7 1809.2,1024.2 		"/>
	</g>
	<g>
		<rect x="93.3" y="98.7" class="st1" width="18.6" height="2.6"/>
	</g>
	<g>
		<rect x="93.3" y="151.9" class="st1" width="18.6" height="2.6"/>
	</g>
	<g>
		<rect x="93.3" y="204.9" class="st1" width="18.6" height="2.6"/>
	</g>
	<g>
		<rect x="93.3" y="257.3" class="st1" width="18.6" height="2.6"/>
	</g>
	<g>
		<rect x="93.3" y="310.5" class="st1" width="18.6" height="2.6"/>
	</g>
	<g>
		<rect x="93.3" y="361.8" class="st1" width="18.6" height="2.6"/>
	</g>
	<g>
		<rect x="93.3" y="414.8" class="st1" width="18.6" height="2.6"/>
	</g>
	<g>
		<rect x="93.3" y="468.3" class="st1" width="18.6" height="2.6"/>
	</g>
	<g>
		<rect x="93.3" y="520.5" class="st1" width="18.6" height="2.6"/>
	</g>
	<g>
		<rect x="93.3" y="573.9" class="st1" width="18.6" height="2.6"/>
	</g>
	<g>
		<rect x="93.3" y="626.4" class="st1" width="18.6" height="2.6"/>
	</g>
	<g>
		<rect x="93.3" y="678.7" class="st1" width="18.6" height="2.6"/>
	</g>
	<g>
		<rect x="93.3" y="731.6" class="st1" width="18.6" height="2.6"/>
	</g>
	<g>
		<rect x="93.3" y="783.6" class="st1" width="18.6" height="2.6"/>
	</g>
	<g>
		<rect x="93.3" y="837" class="st1" width="18.6" height="2.6"/>
	</g>
	<g>
		<rect x="93.3" y="889.7" class="st1" width="18.6" height="2.6"/>
	</g>
	<g>
		<rect x="93.3" y="942.4" class="st1" width="18.6" height="2.6"/>
	</g>
	<g>
		<rect x="93.3" y="995.1" class="st1" width="18.6" height="2.6"/>
	</g>
	<g>
		
			<rect x="141.1" y="1011.7" transform="matrix(-1.836970e-16 1 -1 -1.836970e-16 1163.3917 862.6083)" class="st1" width="18.6" height="2.6"/>
	</g>
	<g>
		
			<rect x="203.9" y="1011.7" transform="matrix(-1.836970e-16 1 -1 -1.836970e-16 1226.2128 799.7872)" class="st1" width="18.6" height="2.6"/>
	</g>
	<g>
		
			<rect x="265.3" y="1011.7" transform="matrix(-1.836970e-16 1 -1 -1.836970e-16 1287.6171 738.383)" class="st1" width="18.6" height="2.6"/>
	</g>
	<g>
		
			<rect x="328.1" y="1011.7" transform="matrix(-1.836970e-16 1 -1 -1.836970e-16 1350.4255 675.5745)" class="st1" width="18.6" height="2.6"/>
	</g>
	<g>
		
			<rect x="391.2" y="1011.7" transform="matrix(-1.836970e-16 1 -1 -1.836970e-16 1413.4894 612.5106)" class="st1" width="18.6" height="2.6"/>
	</g>
	<g>
		
			<rect x="452.9" y="1011.7" transform="matrix(-1.836970e-16 1 -1 -1.836970e-16 1475.1489 550.8511)" class="st1" width="18.6" height="2.6"/>
	</g>
	<g>
		
			<rect x="515.8" y="1011.7" transform="matrix(-1.836970e-16 1 -1 -1.836970e-16 1538.0851 487.9149)" class="st1" width="18.6" height="2.6"/>
	</g>
	<g>
		
			<rect x="578.2" y="1011.7" transform="matrix(-1.836970e-16 1 -1 -1.836970e-16 1600.5106 425.4893)" class="st1" width="18.6" height="2.6"/>
	</g>
	<g>
		
			<rect x="640.3" y="1011.7" transform="matrix(-1.836970e-16 1 -1 -1.836970e-16 1662.5532 363.4468)" class="st1" width="18.6" height="2.6"/>
	</g>
	<g>
		
			<rect x="703.5" y="1011.7" transform="matrix(-1.836970e-16 1 -1 -1.836970e-16 1725.7446 300.2553)" class="st1" width="18.6" height="2.6"/>
	</g>
	<g>
		
			<rect x="764.9" y="1011.7" transform="matrix(-1.836970e-16 1 -1 -1.836970e-16 1787.1489 238.8511)" class="st1" width="18.6" height="2.6"/>
	</g>
	<g>
		
			<rect x="828.1" y="1011.7" transform="matrix(-1.836970e-16 1 -1 -1.836970e-16 1850.3405 175.6596)" class="st1" width="18.6" height="2.6"/>
	</g>
	<g>
		
			<rect x="891.6" y="1011.7" transform="matrix(-1.836970e-16 1 -1 -1.836970e-16 1913.9149 112.0851)" class="st1" width="18.6" height="2.6"/>
	</g>
	<g>
		
			<rect x="952" y="1011.7" transform="matrix(-1.836970e-16 1 -1 -1.836970e-16 1974.2766 51.7234)" class="st1" width="18.6" height="2.6"/>
	</g>
	<g>
		
			<rect x="1015.8" y="1011.7" transform="matrix(-1.836970e-16 1 -1 -1.836970e-16 2038.1063 -12.1064)" class="st1" width="18.6" height="2.6"/>
	</g>
	<g>
		
			<rect x="1077.1" y="1011.7" transform="matrix(-1.836970e-16 1 -1 -1.836970e-16 2099.3831 -73.383)" class="st1" width="18.6" height="2.6"/>
	</g>
	<g>
		
			<rect x="1202.4" y="1011.7" transform="matrix(-1.836970e-16 1 -1 -1.836970e-16 2224.6382 -198.6383)" class="st1" width="18.6" height="2.6"/>
	</g>
	<g>
		
			<rect x="1139.7" y="1011.7" transform="matrix(-1.836970e-16 1 -1 -1.836970e-16 2162.0107 -136.0106)" class="st1" width="18.6" height="2.6"/>
	</g>
	<g>
		
			<rect x="1264.8" y="1011.7" transform="matrix(-1.836970e-16 1 -1 -1.836970e-16 2287.1169 -261.117)" class="st1" width="18.6" height="2.6"/>
	</g>
	<g>
		
			<rect x="1327.4" y="1011.7" transform="matrix(-1.836970e-16 1 -1 -1.836970e-16 2349.6702 -323.6702)" class="st1" width="18.6" height="2.6"/>
	</g>
	<g>
		
			<rect x="1389.8" y="1011.7" transform="matrix(-1.836970e-16 1 -1 -1.836970e-16 2412.0425 -386.0425)" class="st1" width="18.6" height="2.6"/>
	</g>
	<g>
		
			<rect x="1452.1" y="1011.7" transform="matrix(-1.836970e-16 1 -1 -1.836970e-16 2474.3403 -448.3404)" class="st1" width="18.6" height="2.6"/>
	</g>
	<g>
		
			<rect x="1515.1" y="1011.7" transform="matrix(-1.836970e-16 1 -1 -1.836970e-16 2537.4043 -511.4043)" class="st1" width="18.6" height="2.6"/>
	</g>
	<g>
		
			<rect x="1577.9" y="1011.7" transform="matrix(-1.836970e-16 1 -1 -1.836970e-16 2600.2126 -574.2128)" class="st1" width="18.6" height="2.6"/>
	</g>
	<g>
		
			<rect x="1639.5" y="1011.7" transform="matrix(-1.836970e-16 1 -1 -1.836970e-16 2661.7446 -635.7447)" class="st1" width="18.6" height="2.6"/>
	</g>
	<g>
		
			<rect x="1702.3" y="1011.7" transform="matrix(-1.836970e-16 1 -1 -1.836970e-16 2724.5532 -698.5532)" class="st1" width="18.6" height="2.6"/>
	</g>
	<g>
		
			<rect x="1764.6" y="1011.7" transform="matrix(-1.836970e-16 1 -1 -1.836970e-16 2786.8511 -760.8511)" class="st1" width="18.6" height="2.6"/>
	</g>
	<g>
		<polygon class="st1" points="365.5,961.4 365.2,961.3 106.4,840.4 107.3,838.6 365.7,959.4 627.8,917.3 890.1,538.7 1150.4,656.3 
			1413,605.9 1674.8,263 1676.3,264.2 1414.2,607.7 1413.8,607.8 1150.2,658.4 1149.9,658.3 890.8,541.3 629,919.1 628.6,919.2 		
			"/>
	</g>
	<g>
		<circle class="st1" cx="367.1" cy="960.4" r="10.6"/>
	</g>
	<g>
		<circle class="st1" cx="627.6" cy="919.3" r="10.6"/>
	</g>
	<g>
		<circle class="st1" cx="890.3" cy="541.7" r="10.6"/>
	</g>
	<g>
		<circle class="st1" cx="1151.7" cy="656.1" r="10.6"/>
	</g>
	<g>
		<circle class="st1" cx="1413.5" cy="607.6" r="10.6"/>
	</g>
	<g>
		<circle class="st1" cx="1675.6" cy="263.6" r="10.6"/>
	</g>
	<g>
		<rect x="366.4" y="973.6" class="st1" width="1.4" height="6.3"/>
	</g>
	<g>
		<rect x="366.4" y="986.3" class="st1" width="1.4" height="6.3"/>
	</g>
	<g>
		<rect x="366.4" y="998.9" class="st1" width="1.4" height="6.3"/>
	</g>
	<g>
		<rect x="626.9" y="932.1" class="st1" width="1.4" height="6.3"/>
	</g>
	<g>
		<rect x="626.9" y="944.8" class="st1" width="1.4" height="6.3"/>
	</g>
	<g>
		<rect x="626.9" y="957.4" class="st1" width="1.4" height="6.3"/>
	</g>
	<g>
		<rect x="626.9" y="970.4" class="st1" width="1.4" height="6.3"/>
	</g>
	<g>
		<rect x="626.9" y="983.1" class="st1" width="1.4" height="6.3"/>
	</g>
	<g>
		<rect x="626.9" y="995.7" class="st1" width="1.4" height="6.3"/>
	</g>
	<g>
		<rect x="889.6" y="554" class="st1" width="1.4" height="6.3"/>
	</g>
	<g>
		<rect x="889.6" y="566.7" class="st1" width="1.4" height="6.3"/>
	</g>
	<g>
		<rect x="889.6" y="579.2" class="st1" width="1.4" height="6.3"/>
	</g>
	<g>
		<rect x="889.6" y="592.3" class="st1" width="1.4" height="6.3"/>
	</g>
	<g>
		<rect x="889.6" y="605" class="st1" width="1.4" height="6.3"/>
	</g>
	<g>
		<rect x="889.6" y="617.6" class="st1" width="1.4" height="6.3"/>
	</g>
	<g>
		<rect x="889.6" y="631.7" class="st1" width="1.4" height="6.3"/>
	</g>
	<g>
		<rect x="889.6" y="644.4" class="st1" width="1.4" height="6.3"/>
	</g>
	<g>
		<rect x="889.6" y="657" class="st1" width="1.4" height="6.3"/>
	</g>
	<g>
		<rect x="889.6" y="670.1" class="st1" width="1.4" height="6.3"/>
	</g>
	<g>
		<rect x="889.6" y="682.8" class="st1" width="1.4" height="6.3"/>
	</g>
	<g>
		<rect x="889.6" y="695.4" class="st1" width="1.4" height="6.3"/>
	</g>
	<g>
		<rect x="889.6" y="707.9" class="st1" width="1.4" height="6.3"/>
	</g>
	<g>
		<rect x="889.6" y="721" class="st1" width="1.4" height="6.3"/>
	</g>
	<g>
		<rect x="889.6" y="733.7" class="st1" width="1.4" height="6.3"/>
	</g>
	<g>
		<rect x="889.6" y="746.3" class="st1" width="1.4" height="6.3"/>
	</g>
	<g>
		<rect x="889.6" y="760.4" class="st1" width="1.4" height="6.3"/>
	</g>
	<g>
		<rect x="889.6" y="773.1" class="st1" width="1.4" height="6.3"/>
	</g>
	<g>
		<rect x="889.6" y="785.7" class="st1" width="1.4" height="6.3"/>
	</g>
	<g>
		<rect x="889.6" y="798.8" class="st1" width="1.4" height="6.3"/>
	</g>
	<g>
		<rect x="889.6" y="811.5" class="st1" width="1.4" height="6.3"/>
	</g>
	<g>
		<rect x="889.6" y="824.1" class="st1" width="1.4" height="6.3"/>
	</g>
	<g>
		<rect x="889.6" y="838" class="st1" width="1.4" height="6.3"/>
	</g>
	<g>
		<rect x="889.6" y="851" class="st1" width="1.4" height="6.3"/>
	</g>
	<g>
		<rect x="889.6" y="863.7" class="st1" width="1.4" height="6.3"/>
	</g>
	<g>
		<rect x="889.6" y="876.3" class="st1" width="1.4" height="6.3"/>
	</g>
	<g>
		<rect x="889.6" y="890.5" class="st1" width="1.4" height="6.3"/>
	</g>
	<g>
		<rect x="889.6" y="903.2" class="st1" width="1.4" height="6.3"/>
	</g>
	<g>
		<rect x="889.6" y="915.8" class="st1" width="1.4" height="6.3"/>
	</g>
	<g>
		<rect x="889.6" y="928.8" class="st1" width="1.4" height="6.3"/>
	</g>
	<g>
		<rect x="889.6" y="941.5" class="st1" width="1.4" height="6.3"/>
	</g>
	<g>
		<rect x="889.6" y="954.1" class="st1" width="1.4" height="6.3"/>
	</g>
	<g>
		<rect x="889.6" y="968.8" class="st1" width="1.4" height="6.3"/>
	</g>
	<g>
		<rect x="889.6" y="981.5" class="st1" width="1.4" height="6.3"/>
	</g>
	<g>
		<rect x="889.6" y="994.1" class="st1" width="1.4" height="6.3"/>
	</g>
	<g>
		<rect x="1151" y="671.5" class="st1" width="1.4" height="6.3"/>
	</g>
	<g>
		<rect x="1151" y="684.1" class="st1" width="1.4" height="6.3"/>
	</g>
	<g>
		<rect x="1151" y="697.2" class="st1" width="1.4" height="6.3"/>
	</g>
	<g>
		<rect x="1151" y="709.9" class="st1" width="1.4" height="6.3"/>
	</g>
	<g>
		<rect x="1151" y="722.5" class="st1" width="1.4" height="6.3"/>
	</g>
	<g>
		<rect x="1151" y="736.6" class="st1" width="1.4" height="6.3"/>
	</g>
	<g>
		<rect x="1151" y="749.3" class="st1" width="1.4" height="6.3"/>
	</g>
	<g>
		<rect x="1151" y="761.9" class="st1" width="1.4" height="6.3"/>
	</g>
	<g>
		<rect x="1151" y="775" class="st1" width="1.4" height="6.3"/>
	</g>
	<g>
		<rect x="1151" y="787.7" class="st1" width="1.4" height="6.3"/>
	</g>
	<g>
		<rect x="1151" y="800.2" class="st1" width="1.4" height="6.3"/>
	</g>
	<g>
		<rect x="1151" y="814.2" class="st1" width="1.4" height="6.3"/>
	</g>
	<g>
		<rect x="1151" y="827.2" class="st1" width="1.4" height="6.3"/>
	</g>
	<g>
		<rect x="1151" y="839.9" class="st1" width="1.4" height="6.3"/>
	</g>
	<g>
		<rect x="1151" y="852.5" class="st1" width="1.4" height="6.3"/>
	</g>
	<g>
		<rect x="1151" y="866.7" class="st1" width="1.4" height="6.3"/>
	</g>
	<g>
		<rect x="1151" y="879.4" class="st1" width="1.4" height="6.3"/>
	</g>
	<g>
		<rect x="1151" y="892" class="st1" width="1.4" height="6.3"/>
	</g>
	<g>
		<rect x="1151" y="905" class="st1" width="1.4" height="6.3"/>
	</g>
	<g>
		<rect x="1151" y="917.7" class="st1" width="1.4" height="6.3"/>
	</g>
	<g>
		<rect x="1151" y="930.3" class="st1" width="1.4" height="6.3"/>
	</g>
	<g>
		<rect x="1151" y="945" class="st1" width="1.4" height="6.3"/>
	</g>
	<g>
		<rect x="1151" y="957.7" class="st1" width="1.4" height="6.3"/>
	</g>
	<g>
		<rect x="1151" y="970.3" class="st1" width="1.4" height="6.3"/>
	</g>
	<g>
		<rect x="1151" y="980.7" class="st1" width="1.4" height="6.3"/>
	</g>
	<g>
		<rect x="1151" y="993.3" class="st1" width="1.4" height="6.3"/>
	</g>
	<g>
		<rect x="1412.8" y="671.5" class="st1" width="1.4" height="6.3"/>
	</g>
	<g>
		<rect x="1412.8" y="684.1" class="st1" width="1.4" height="6.3"/>
	</g>
	<g>
		<rect x="1412.8" y="697.2" class="st1" width="1.4" height="6.3"/>
	</g>
	<g>
		<rect x="1412.8" y="709.9" class="st1" width="1.4" height="6.3"/>
	</g>
	<g>
		<rect x="1412.8" y="620.6" class="st1" width="1.4" height="6.3"/>
	</g>
	<g>
		<rect x="1412.8" y="633.2" class="st1" width="1.4" height="6.3"/>
	</g>
	<g>
		<rect x="1412.8" y="646.3" class="st1" width="1.4" height="6.3"/>
	</g>
	<g>
		<rect x="1412.8" y="659" class="st1" width="1.4" height="6.3"/>
	</g>
	<g>
		<rect x="1412.8" y="722.5" class="st1" width="1.4" height="6.3"/>
	</g>
	<g>
		<rect x="1412.8" y="736.6" class="st1" width="1.4" height="6.3"/>
	</g>
	<g>
		<rect x="1412.8" y="749.3" class="st1" width="1.4" height="6.3"/>
	</g>
	<g>
		<rect x="1412.8" y="761.9" class="st1" width="1.4" height="6.3"/>
	</g>
	<g>
		<rect x="1412.8" y="775" class="st1" width="1.4" height="6.3"/>
	</g>
	<g>
		<rect x="1412.8" y="787.7" class="st1" width="1.4" height="6.3"/>
	</g>
	<g>
		<rect x="1412.8" y="800.2" class="st1" width="1.4" height="6.3"/>
	</g>
	<g>
		<rect x="1412.8" y="814.2" class="st1" width="1.4" height="6.3"/>
	</g>
	<g>
		<rect x="1412.8" y="827.2" class="st1" width="1.4" height="6.3"/>
	</g>
	<g>
		<rect x="1412.8" y="839.9" class="st1" width="1.4" height="6.3"/>
	</g>
	<g>
		<rect x="1412.8" y="852.5" class="st1" width="1.4" height="6.3"/>
	</g>
	<g>
		<rect x="1412.8" y="866.7" class="st1" width="1.4" height="6.3"/>
	</g>
	<g>
		<rect x="1412.8" y="879.4" class="st1" width="1.4" height="6.3"/>
	</g>
	<g>
		<rect x="1412.8" y="892" class="st1" width="1.4" height="6.3"/>
	</g>
	<g>
		<rect x="1412.8" y="905" class="st1" width="1.4" height="6.3"/>
	</g>
	<g>
		<rect x="1412.8" y="917.7" class="st1" width="1.4" height="6.3"/>
	</g>
	<g>
		<rect x="1412.8" y="930.3" class="st1" width="1.4" height="6.3"/>
	</g>
	<g>
		<rect x="1412.8" y="945" class="st1" width="1.4" height="6.3"/>
	</g>
	<g>
		<rect x="1412.8" y="957.7" class="st1" width="1.4" height="6.3"/>
	</g>
	<g>
		<rect x="1412.8" y="970.3" class="st1" width="1.4" height="6.3"/>
	</g>
	<g>
		<rect x="1412.8" y="980.7" class="st1" width="1.4" height="6.3"/>
	</g>
	<g>
		<rect x="1412.8" y="993.3" class="st1" width="1.4" height="6.3"/>
	</g>
	<g>
		<rect x="1674.9" y="316.1" class="st1" width="1.4" height="6.3"/>
	</g>
	<g>
		<rect x="1674.9" y="328.6" class="st1" width="1.4" height="6.3"/>
	</g>
	<g>
		<rect x="1674.9" y="341.7" class="st1" width="1.4" height="6.3"/>
	</g>
	<g>
		<rect x="1674.9" y="354.4" class="st1" width="1.4" height="6.3"/>
	</g>
	<g>
		<rect x="1674.9" y="277.7" class="st1" width="1.4" height="6.3"/>
	</g>
	<g>
		<rect x="1674.9" y="290.8" class="st1" width="1.4" height="6.3"/>
	</g>
	<g>
		<rect x="1674.9" y="303.5" class="st1" width="1.4" height="6.3"/>
	</g>
	<g>
		<rect x="1674.9" y="367" class="st1" width="1.4" height="6.3"/>
	</g>
	<g>
		<rect x="1674.9" y="381.1" class="st1" width="1.4" height="6.3"/>
	</g>
	<g>
		<rect x="1674.9" y="393.9" class="st1" width="1.4" height="6.3"/>
	</g>
	<g>
		<rect x="1674.9" y="406.4" class="st1" width="1.4" height="6.3"/>
	</g>
	<g>
		<rect x="1674.9" y="419.5" class="st1" width="1.4" height="6.3"/>
	</g>
	<g>
		<rect x="1674.9" y="432.2" class="st1" width="1.4" height="6.3"/>
	</g>
	<g>
		<rect x="1674.9" y="444.8" class="st1" width="1.4" height="6.3"/>
	</g>
	<g>
		<rect x="1674.9" y="458.7" class="st1" width="1.4" height="6.3"/>
	</g>
	<g>
		<rect x="1674.9" y="471.7" class="st1" width="1.4" height="6.3"/>
	</g>
	<g>
		<rect x="1674.9" y="484.4" class="st1" width="1.4" height="6.3"/>
	</g>
	<g>
		<rect x="1674.9" y="497" class="st1" width="1.4" height="6.3"/>
	</g>
	<g>
		<rect x="1674.9" y="511.2" class="st1" width="1.4" height="6.3"/>
	</g>
	<g>
		<rect x="1674.9" y="523.9" class="st1" width="1.4" height="6.3"/>
	</g>
	<g>
		<rect x="1674.9" y="536.5" class="st1" width="1.4" height="6.3"/>
	</g>
	<g>
		<rect x="1674.9" y="549.5" class="st1" width="1.4" height="6.3"/>
	</g>
	<g>
		<rect x="1674.9" y="562.2" class="st1" width="1.4" height="6.3"/>
	</g>
	<g>
		<rect x="1674.9" y="574.8" class="st1" width="1.4" height="6.3"/>
	</g>
	<g>
		<rect x="1674.9" y="589.5" class="st1" width="1.4" height="6.3"/>
	</g>
	<g>
		<rect x="1674.9" y="602.2" class="st1" width="1.4" height="6.3"/>
	</g>
	<g>
		<rect x="1674.9" y="614.8" class="st1" width="1.4" height="6.3"/>
	</g>
	<g>
		<rect x="1674.9" y="625.3" class="st1" width="1.4" height="6.3"/>
	</g>
	<g>
		<rect x="1674.9" y="637.8" class="st1" width="1.4" height="6.3"/>
	</g>
	<g>
		<rect x="1674.9" y="652.7" class="st1" width="1.4" height="6.3"/>
	</g>
	<g>
		<rect x="1674.9" y="665.4" class="st1" width="1.4" height="6.3"/>
	</g>
	<g>
		<rect x="1674.9" y="678" class="st1" width="1.4" height="6.3"/>
	</g>
	<g>
		<rect x="1674.9" y="691.9" class="st1" width="1.4" height="6.3"/>
	</g>
	<g>
		<rect x="1674.9" y="705" class="st1" width="1.4" height="6.3"/>
	</g>
	<g>
		<rect x="1674.9" y="717.7" class="st1" width="1.4" height="6.3"/>
	</g>
	<g>
		<rect x="1674.9" y="730.3" class="st1" width="1.4" height="6.3"/>
	</g>
	<g>
		<rect x="1674.9" y="744.4" class="st1" width="1.4" height="6.3"/>
	</g>
	<g>
		<rect x="1674.9" y="757.1" class="st1" width="1.4" height="6.3"/>
	</g>
	<g>
		<rect x="1674.9" y="769.7" class="st1" width="1.4" height="6.3"/>
	</g>
	<g>
		<rect x="1674.9" y="782.8" class="st1" width="1.4" height="6.3"/>
	</g>
	<g>
		<rect x="1674.9" y="795.5" class="st1" width="1.4" height="6.3"/>
	</g>
	<g>
		<rect x="1674.9" y="808.1" class="st1" width="1.4" height="6.3"/>
	</g>
	<g>
		<rect x="1674.9" y="822.8" class="st1" width="1.4" height="6.3"/>
	</g>
	<g>
		<rect x="1674.9" y="835.5" class="st1" width="1.4" height="6.3"/>
	</g>
	<g>
		<rect x="1674.9" y="848" class="st1" width="1.4" height="6.3"/>
	</g>
	<g>
		<rect x="1674.9" y="858.5" class="st1" width="1.4" height="6.3"/>
	</g>
	<g>
		<rect x="1674.9" y="871.1" class="st1" width="1.4" height="6.3"/>
	</g>
	<g>
		<rect x="1674.9" y="886.4" class="st1" width="1.4" height="6.3"/>
	</g>
	<g>
		<rect x="1674.9" y="899.1" class="st1" width="1.4" height="6.3"/>
	</g>
	<g>
		<rect x="1674.9" y="911.7" class="st1" width="1.4" height="6.3"/>
	</g>
	<g>
		<rect x="1674.9" y="926.4" class="st1" width="1.4" height="6.3"/>
	</g>
	<g>
		<rect x="1674.9" y="939.1" class="st1" width="1.4" height="6.3"/>
	</g>
	<g>
		<rect x="1674.9" y="951.7" class="st1" width="1.4" height="6.3"/>
	</g>
	<g>
		<rect x="1674.9" y="963.2" class="st1" width="1.4" height="6.3"/>
	</g>
	<g>
		<rect x="1674.9" y="974.7" class="st1" width="1.4" height="6.3"/>
	</g>
	<g>
		<rect x="1674.9" y="990.2" class="st1" width="1.4" height="6.3"/>
	</g>
	<g>
		<rect x="1674.9" y="1001.8" class="st1" width="1.4" height="6.3"/>
	</g>
</g>
</svg>
