<?xml version="1.0" encoding="utf-8"?>
<!-- Generator: Adobe Illustrator 25.4.1, SVG Export Plug-In . SVG Version: 6.00 Build 0)  -->
<svg version="1.1" id="Layer_1" xmlns="http://www.w3.org/2000/svg" xmlns:xlink="http://www.w3.org/1999/xlink" x="0px" y="0px"
	 viewBox="0 0 500 500" style="enable-background:new 0 0 500 500;" xml:space="preserve">
<style type="text/css">
	.st0{fill:#4A4D5E;}
</style>
<g>
	<path class="st0" d="M250,472.8c-59.5,0-115.5-23.2-157.5-65.3c-42.1-42.1-65.3-98-65.3-157.5S50.4,134.5,92.5,92.5
		s98-65.3,157.5-65.3s115.5,23.2,157.5,65.3c42.1,42.1,65.3,98,65.3,157.5s-23.2,115.5-65.3,157.5
		C365.5,449.6,309.5,472.8,250,472.8z M250,47.2c-111.8,0-202.8,91-202.8,202.8s91,202.8,202.8,202.8s202.8-91,202.8-202.8
		S361.8,47.2,250,47.2z"/>
</g>
<g>
	<path class="st0" d="M372.3,319.7H127.7c-4.7,0-8.5-3.8-8.5-8.5V151.6c0-4.7,3.8-8.5,8.5-8.5h244.6c4.7,0,8.5,3.8,8.5,8.5v159.6
		C380.8,315.9,377,319.7,372.3,319.7z M134.2,304.7h231.6V158.1H134.2V304.7z"/>
</g>
<g>
	<circle class="st0" cx="151" cy="283.5" r="4.7"/>
</g>
<g>
	<circle class="st0" cx="180.7" cy="248.4" r="4.7"/>
</g>
<g>
	<circle class="st0" cx="215.3" cy="262.5" r="4.7"/>
</g>
<g>
	<circle class="st0" cx="254.7" cy="224.1" r="4.7"/>
</g>
<g>
	<circle class="st0" cx="304.9" cy="234.1" r="4.7"/>
</g>
<g>
	<circle class="st0" cx="344" cy="190.9" r="4.7"/>
</g>
<g>
	
		<rect x="163.8" y="245.2" transform="matrix(-0.773 -0.6344 0.6344 -0.773 126.0111 576.0563)" class="st0" width="4.6" height="40.5"/>
</g>
<g>
	
		<rect x="195.6" y="239.6" transform="matrix(0.404 -0.9147 0.9147 0.404 -115.5999 333.2068)" class="st0" width="4.6" height="31.5"/>
</g>
<g>
	
		<rect x="232.7" y="218.6" transform="matrix(0.7071 0.7071 -0.7071 0.7071 240.6308 -95.0407)" class="st0" width="4.6" height="48.7"/>
</g>
<g>
	
		<rect x="277.6" y="206.6" transform="matrix(-0.1886 0.982 -0.982 -0.1886 557.6215 -2.6256)" class="st0" width="4.6" height="45"/>
</g>
<g>
	
		<rect x="322.4" y="186.4" transform="matrix(-0.7428 -0.6695 0.6695 -0.7428 423.5904 587.553)" class="st0" width="4.6" height="52"/>
</g>
<g>
	<rect x="221" y="318.8" class="st0" width="57.7" height="28.5"/>
</g>
<g>
	<path class="st0" d="M289,352.5h-78c-1.8,0-3.3-1.5-3.3-3.3l0,0c0-1.8,1.5-3.3,3.3-3.3h78c1.8,0,3.3,1.5,3.3,3.3l0,0
		C292.3,351,290.8,352.5,289,352.5z"/>
</g>
</svg>
