<?xml version="1.0" encoding="utf-8"?>
<!-- Generator: Adobe Illustrator 25.4.1, SVG Export Plug-In . SVG Version: 6.00 Build 0)  -->
<svg version="1.1" id="Layer_1" xmlns="http://www.w3.org/2000/svg" xmlns:xlink="http://www.w3.org/1999/xlink" x="0px" y="0px"
	 viewBox="0 0 500 500" style="enable-background:new 0 0 500 500;" xml:space="preserve">
<style type="text/css">
	.st0{fill:#445772;}
	.st1{fill:#C8CFDB;}
	.st2{fill:#162F54;}
	.st3{fill:none;stroke:#FFFFFF;stroke-width:11;stroke-linecap:round;stroke-linejoin:round;stroke-miterlimit:10;}
</style>
<circle class="st0" cx="192.7" cy="170" r="118.3"/>
<circle class="st1" cx="192.7" cy="170" r="97.4"/>
<path class="st0" d="M404.9,435.3L390.7,446c-5.6,4.2-13.7,3.1-17.9-2.5L254.5,286.2c-4.2-5.6-3.1-13.7,2.5-17.9l14.2-10.7
	c5.6-4.2,13.7-3.1,17.9,2.5l118.2,157.3C411.7,423,410.6,431.1,404.9,435.3z"/>
<rect x="310.3" y="262.9" transform="matrix(0.7994 -0.6008 0.6008 0.7994 -145.5718 270.333)" class="st2" width="43.4" height="180.5"/>
<path class="st3" d="M264.6,150.2c0,0,13,57.1-38.3,85.6"/>
</svg>
